<svg xmlns="http://www.w3.org/2000/svg"  viewBox="0 0 48 48" width="48px" height="48px"><path fill="#d6e5e5" d="M44.443,38.002c0-5,0.164-3.146,0.16-7.645c-0.004-3.752-0.348-5.49-0.195-8.18	c0.127-2.228-0.338-6.179-0.288-8.41c0.087-3.9,1.336-6.106-1.796-8.628c-1.741-1.402-4.322-1.51-6.494-1.618	c-2.172-0.108-6.429,0.313-8.601,0.416c-5.348,0.254-4.617,0.1-10.251-0.128c-2.056-0.083-9.43-0.094-11.035,1.193	c-1.545,1.24-2.06,3.227-2.017,6.598c0.057,4.447,0.676,6.296,0.653,10.743c-0.009,1.699-0.043,5.477-0.052,7.176	c-0.007,1.371-0.339,4.179-0.318,5.55c0.02,1.275,0.163,3.629,0.27,4.935c0.106,1.305,1.108,2.747,2.286,3.32	c0.502,0.245,1.067,0.315,1.611,0.444c1.02,0.242,4.773,0.18,8.755,0.221c5.174,0.054,11.494-0.054,14.143-0.041	c3.513,0.016,6.083,0.391,8.169,0.055C42.446,43.518,44.636,41.911,44.443,38.002"/><path fill="#010101" d="M37.36,44.641c-0.802,0-1.661-0.04-2.584-0.083c-1.041-0.049-2.22-0.104-3.505-0.11	c-0.988-0.005-2.482,0.008-4.238,0.021c-2.968,0.024-6.659,0.052-9.907,0.02c-0.977-0.01-1.938-0.014-2.85-0.018	c-2.9-0.012-5.19-0.021-6.016-0.217c-0.135-0.032-0.271-0.061-0.406-0.089c-0.432-0.09-0.878-0.184-1.308-0.393	c-1.343-0.654-2.445-2.258-2.565-3.729c-0.101-1.226-0.25-3.633-0.271-4.968c-0.012-0.751,0.078-1.902,0.165-3.016	c0.076-0.987,0.149-1.92,0.152-2.545l0.052-7.176c0.012-2.3-0.147-3.872-0.316-5.537c-0.152-1.502-0.31-3.054-0.337-5.196	C3.379,7.932,4.018,5.905,5.631,4.612c2.037-1.636,11.273-1.306,11.367-1.304c1.49,0.061,2.536,0.116,3.367,0.16	c2.309,0.121,2.93,0.154,6.84-0.031c0.663-0.032,1.521-0.094,2.456-0.16c2.182-0.155,4.654-0.334,6.193-0.256l0.104,0.005	c2.156,0.107,4.84,0.24,6.68,1.723c2.616,2.106,2.414,4.09,2.159,6.601c-0.077,0.759-0.157,1.543-0.177,2.428	c-0.022,0.999,0.061,2.344,0.147,3.767c0.104,1.682,0.21,3.422,0.14,4.661c-0.082,1.448-0.017,2.633,0.06,4.004	c0.063,1.145,0.135,2.441,0.137,4.146c0.002,2.214-0.036,2.895-0.077,3.615c-0.04,0.731-0.083,1.486-0.083,4.02	c0.179,3.708-1.646,5.896-5.42,6.505C38.852,44.604,38.133,44.641,37.36,44.641z M30.795,43.446c0.171,0,0.332,0,0.48,0.001	c1.307,0.006,2.497,0.062,3.548,0.111c1.828,0.086,3.274,0.154,4.541-0.05c3.237-0.522,4.735-2.316,4.58-5.482l-0.001-0.024	c0-2.57,0.043-3.342,0.085-4.087c0.04-0.706,0.077-1.373,0.075-3.559c-0.002-1.678-0.073-2.96-0.136-4.092	c-0.077-1.401-0.145-2.611-0.059-4.116c0.067-1.181-0.038-2.89-0.14-4.543c-0.089-1.445-0.173-2.81-0.149-3.85	c0.021-0.926,0.106-1.766,0.182-2.507c0.251-2.467,0.402-3.955-1.791-5.721c-1.588-1.278-3.986-1.398-6.103-1.503L35.805,4.02	c-1.471-0.065-4.023,0.108-6.072,0.256c-0.943,0.066-1.811,0.129-2.48,0.16c-3.959,0.19-4.591,0.156-6.939,0.031	c-0.828-0.043-1.87-0.099-3.355-0.158c-3.104-0.13-9.427,0.061-10.7,1.083c-1.343,1.077-1.873,2.874-1.831,6.201	c0.027,2.099,0.182,3.629,0.332,5.109c0.164,1.617,0.333,3.29,0.321,5.644l-0.052,7.176c-0.003,0.661-0.077,1.61-0.155,2.616	c-0.085,1.091-0.173,2.219-0.162,2.923c0.021,1.312,0.169,3.69,0.268,4.901c0.093,1.129,0.974,2.408,2.007,2.912	c0.317,0.154,0.686,0.231,1.074,0.312c0.146,0.03,0.29,0.061,0.434,0.095c0.713,0.169,3.064,0.179,5.788,0.189	c0.913,0.004,1.878,0.008,2.855,0.018c3.238,0.032,6.926,0.005,9.89-0.02C28.521,43.457,29.828,43.446,30.795,43.446z"/><path fill="#373837" d="M24.752,7.718c-1.878-0.1-4.016,0.073-5.894-0.027c-1.258-0.067-3.719-0.099-4.684,0.71	c-0.993,0.833-1.192,2.258-1.322,3.547c-0.133,1.321,0.24,2.658,0.106,3.979c-0.229,2.27,0.106,4.534,0.078,6.816	c-0.022,1.82,0.085,3.643-0.033,5.46c-0.219,3.372-0.146,4.674-0.11,9.252c0.004,0.53-0.282,1.585,0.889,2.467	c0.367,0.277,1.844,0.407,2.351,0.385c6.94-0.298,11.303,0.669,16.787-0.133c0.54-0.079,1.105-0.178,1.531-0.519	c0.368-0.295,0.652-0.715,0.762-1.174c0.93-3.893,0.526-6.742,0.639-11.16c0.068-2.656-0.014-7.413,0.104-10.067	c0.118-2.654,0.544-5.379-0.491-7.826c-0.606-1.433-2.829-1.531-3.514-1.582C29.555,7.669,27.151,7.626,24.752,7.718"/><path fill="#9fdadf" d="M25.135,10.347c-2.572-0.22-5.162-0.229-7.736-0.027c-0.36,0.028-0.763,0.083-0.981,0.37	c-0.158,0.207-0.177,0.485-0.19,0.745c-0.038,0.753-0.076,1.507-0.115,2.26c-0.064,1.271-0.419,3.102,1.237,3.346	c0.344,0.051,0.676,0.153,1.023,0.172c4.427,0.244,8.37,0.147,12.802,0.009c0.487-0.015,1.038-0.066,1.341-0.447	c0.22-0.277,0.246-0.657,0.253-1.01c0.031-1.642,0.33-2.949-0.081-4.54c-0.065-0.254-0.153-0.529-0.374-0.669	c-0.161-0.103-0.363-0.112-0.554-0.118C29.577,10.367,27.319,10.418,25.135,10.347"/><path fill="#010101" d="M28.049,40.999c-1.363,0-2.717-0.057-4.104-0.116c-2.369-0.1-4.819-0.204-7.791-0.075	c-0.392,0.014-2.117-0.066-2.674-0.486c-1.21-0.912-1.137-2.027-1.098-2.626c0.006-0.088,0.012-0.167,0.011-0.236l-0.022-2.294	c-0.03-2.827-0.045-4.246,0.134-6.994c0.074-1.138,0.058-2.308,0.043-3.438c-0.01-0.665-0.019-1.33-0.011-1.995	c0.011-0.877-0.034-1.774-0.078-2.642c-0.069-1.376-0.141-2.8,0.003-4.219c0.062-0.613,0.006-1.236-0.054-1.896	c-0.062-0.676-0.124-1.374-0.053-2.081c0.146-1.45,0.382-2.944,1.498-3.881c0.815-0.684,2.514-0.962,5.031-0.826	c0.921,0.049,1.931,0.03,2.906,0.013c0.989-0.02,2.011-0.037,2.966,0.013c2.4-0.089,4.832-0.048,7.229,0.13	c0.954,0.068,3.238,0.231,3.938,1.887c0.901,2.131,0.753,4.436,0.609,6.665c-0.029,0.46-0.06,0.919-0.08,1.377	c-0.066,1.508-0.069,3.695-0.071,5.811c-0.002,1.581-0.004,3.107-0.032,4.247c-0.032,1.243-0.022,2.361-0.014,3.414	c0.023,2.682,0.043,4.999-0.639,7.85c-0.133,0.557-0.465,1.071-0.936,1.448c-0.512,0.411-1.129,0.529-1.771,0.624	C31.278,40.92,29.656,40.999,28.049,40.999z M18.941,39.749c1.844,0,3.513,0.07,5.045,0.135c3.104,0.132,5.784,0.245,8.86-0.204	c0.518-0.075,0.973-0.159,1.289-0.414c0.294-0.235,0.509-0.563,0.589-0.9c0.653-2.732,0.634-4.992,0.611-7.609	c-0.009-1.062-0.019-2.192,0.014-3.447c0.029-1.134,0.03-2.65,0.032-4.223c0.002-2.126,0.005-4.325,0.073-5.854	c0.021-0.464,0.05-0.93,0.08-1.396c0.143-2.21,0.276-4.298-0.533-6.212c-0.461-1.09-2.301-1.221-2.993-1.271	c-2.467-0.184-4.871-0.227-7.237-0.134L24.748,8.22l-0.022-0.002c-0.922-0.048-1.937-0.031-2.917-0.013	c-0.995,0.018-2.022,0.036-2.978-0.015c-2.167-0.116-3.747,0.101-4.336,0.594c-0.829,0.695-1.021,1.97-1.146,3.215	c-0.062,0.612-0.005,1.234,0.055,1.892c0.061,0.678,0.124,1.379,0.052,2.088c-0.136,1.343-0.065,2.729,0.002,4.067	c0.044,0.883,0.09,1.795,0.079,2.703c-0.008,0.656,0.001,1.313,0.011,1.97c0.016,1.15,0.031,2.34-0.045,3.517	c-0.177,2.711-0.162,4.029-0.132,6.919l0.022,2.297c0.001,0.091-0.006,0.194-0.013,0.309c-0.036,0.552-0.077,1.176,0.702,1.763	c0.229,0.153,1.444,0.315,2.028,0.285C17.099,39.766,18.041,39.749,18.941,39.749z"/><path fill="#010101" d="M24.076,17.864c-1.874,0-3.744-0.042-5.73-0.151c-0.238-0.013-0.472-0.06-0.705-0.107	c-0.12-0.025-0.241-0.051-0.363-0.069c-1.923-0.283-1.779-2.244-1.693-3.416c0.012-0.155,0.022-0.307,0.03-0.45l0.115-2.26	c0.013-0.271,0.033-0.685,0.292-1.023c0.372-0.489,1.001-0.539,1.339-0.565c2.59-0.204,5.214-0.194,7.805,0.027	c1.083,0.034,2.185,0.039,3.285,0.044c1.115,0.005,2.23,0.01,3.326,0.045c0.224,0.008,0.527,0.02,0.807,0.195	c0.407,0.26,0.526,0.721,0.59,0.968c0.314,1.216,0.241,2.259,0.165,3.362c-0.029,0.42-0.06,0.853-0.068,1.312	c-0.008,0.425-0.044,0.911-0.361,1.312c-0.475,0.597-1.283,0.622-1.718,0.637C28.672,17.801,26.372,17.864,24.076,17.864z M21.092,10.676c-1.221,0-2.441,0.047-3.653,0.142c-0.155,0.013-0.52,0.041-0.621,0.175c-0.071,0.094-0.082,0.31-0.09,0.468	l-0.115,2.261c-0.007,0.15-0.019,0.31-0.031,0.473c-0.113,1.556-0.021,2.227,0.843,2.354c0.142,0.021,0.281,0.05,0.421,0.079	c0.184,0.038,0.367,0.078,0.555,0.089c4.382,0.24,8.209,0.151,12.76,0.008c0.405-0.013,0.803-0.053,0.966-0.259	c0.124-0.155,0.14-0.447,0.145-0.709c0.009-0.477,0.04-0.926,0.07-1.361c0.074-1.064,0.138-1.984-0.136-3.043	c-0.021-0.081-0.084-0.326-0.157-0.373c-0.049-0.031-0.202-0.037-0.304-0.04c-1.086-0.035-2.191-0.04-3.297-0.045	c-1.115-0.005-2.23-0.01-3.326-0.045l-0.027-0.002C23.766,10.732,22.429,10.676,21.092,10.676z"/><path fill="#c0e6ed" d="M17.893,20.364c-0.593-0.148-1.732,0.04-2.216,0.413c-0.437,0.336-0.657,0.641-0.66,1.192	c-0.003,0.38,0.02,0.766,0.148,1.123c0.361,1.016,1.601,1.592,2.636,1.289c1.035-0.303,1.757-1.029,1.724-2.107	c-0.013-0.437-0.145-0.884-0.441-1.205S18.406,20.434,17.893,20.364"/><path fill="#c0e6ed" d="M26.505,29.9c0.148-0.593-0.04-1.732-0.413-2.216c-0.336-0.437-0.641-0.657-1.192-0.66	c-0.38-0.003-0.766,0.02-1.123,0.148c-1.016,0.361-1.592,1.601-1.289,2.636c0.304,1.035,1.029,1.757,2.107,1.724	c0.437-0.013,0.884-0.145,1.205-0.441S26.435,30.412,26.505,29.9"/><path fill="#c0e6ed" d="M24.667,20.16c-0.63-0.088-1.291,0.085-1.798,0.469c-0.458,0.348-0.794,0.9-0.753,1.473	c0.032,0.446,0.247,1.159,0.535,1.502c0.418,0.498,0.978,0.68,1.623,0.759c0.807,0.098,1.595-0.296,1.849-0.811	c0.171-0.347,0.195-0.481,0.245-0.865c0.061-0.468,0.088-0.96-0.088-1.398C26.105,20.85,25.138,20.124,24.667,20.16"/><path fill="#f3ad20" d="M33.114,20.686c-0.41-0.41-1.047-0.75-2.311-0.526c-0.515,0.092-0.847,0.202-1.119,0.649	c-0.187,0.308-0.357,0.634-0.427,0.987c-0.201,1.004,0.528,2.078,1.519,2.335s1.933,0.018,2.432-0.876	c0.202-0.362,0.465-0.913,0.38-1.319C33.502,21.53,33.497,20.993,33.114,20.686"/><path fill="#f3ad20" d="M33.203,29.458c0.148-0.593-0.088-1.29-0.461-1.774c-0.336-0.437-0.641-0.657-1.192-0.66	c-0.38-0.003-0.766,0.02-1.123,0.148c-1.016,0.361-1.592,1.601-1.289,2.636c0.303,1.035,0.916,1.507,1.993,1.474	c0.437-0.013,0.884-0.145,1.205-0.441S33.133,29.97,33.203,29.458"/><path fill="#f3ad20" d="M32.522,34.316c-0.383-0.507-0.973-0.853-1.603-0.939c-0.57-0.078-1.198,0.075-1.574,0.509	c-0.293,0.338-0.645,0.995-0.684,1.44c-0.057,0.647,0.232,1.156,0.611,1.684c0.689,0.958,2.064,0.816,2.666,0.295	c0.357-0.309,0.741-0.617,0.927-1.051C33.051,35.821,32.881,34.624,32.522,34.316"/><path fill="#c0e6ed" d="M18.431,27.555c-0.568-0.286-1.25-0.335-1.853-0.134c-0.546,0.182-1.041,0.596-1.187,1.153	c-0.114,0.433-0.139,1.177,0.023,1.594c0.235,0.606,0.707,0.959,1.292,1.241c0.733,0.353,1.605,0.233,2.012-0.173	c0.274-0.274,0.339-0.393,0.51-0.74c0.208-0.424,0.392-0.88,0.367-1.352C19.57,28.671,18.889,27.673,18.431,27.555"/><path fill="#c0e6ed" d="M21.957,34.205c-1.244-0.078-2.845,0.036-3.864,0.033c-1.786-0.004-2.213,0.45-2.427,1.445	c-0.166,0.772,0.205,1.775,1.108,2.105c0.742,0.271,1.484,0.234,2.274,0.251c1.85,0.039,3.703-0.024,5.547-0.189	c0.286-0.026,0.577-0.055,0.844-0.161c0.868-0.344,1.019-1.116,0.923-2.045c-0.079-0.77-0.436-1.264-1.646-1.406	C23.838,34.134,22.843,34.196,21.957,34.205"/><path fill="#010101" d="M17.219,24.963c-1.097,0-2.161-0.678-2.525-1.703c-0.159-0.448-0.179-0.905-0.177-1.294	c0.006-0.818,0.415-1.246,0.856-1.586c0.633-0.487,1.915-0.67,2.614-0.507c0.525,0.078,1.005,0.358,1.464,0.856	c0.351,0.38,0.554,0.923,0.573,1.528c0.038,1.235-0.74,2.209-2.083,2.603C17.704,24.93,17.46,24.963,17.219,24.963z M17.403,20.812	c-0.498,0-1.149,0.152-1.421,0.361c-0.363,0.279-0.463,0.451-0.466,0.8c-0.002,0.301,0.012,0.649,0.118,0.952	c0.266,0.743,1.232,1.204,2.025,0.977c0.523-0.154,1.396-0.568,1.364-1.612c-0.011-0.365-0.121-0.678-0.309-0.882	c-0.307-0.333-0.59-0.507-0.89-0.548l-0.054-0.01C17.669,20.823,17.542,20.812,17.403,20.812z"/><path fill="#010101" d="M31.505,24.73c-0.273,0-0.56-0.038-0.855-0.114c-1.271-0.33-2.135-1.666-1.884-2.918	c0.092-0.455,0.311-0.853,0.491-1.148c0.391-0.645,0.913-0.785,1.458-0.882c1.182-0.21,2.077,0.002,2.734,0.646	c0.438,0.366,0.524,0.9,0.587,1.292c0.013,0.078,0.025,0.155,0.04,0.228c0.092,0.436-0.05,0.98-0.433,1.665	C33.198,24.299,32.429,24.73,31.505,24.73z M31.549,20.589c-0.19,0-0.408,0.02-0.658,0.063c-0.48,0.086-0.626,0.163-0.779,0.417	c-0.139,0.227-0.305,0.524-0.365,0.826c-0.145,0.723,0.405,1.559,1.154,1.752c0.495,0.128,1.396,0.216,1.87-0.635	c0.358-0.643,0.341-0.907,0.327-0.974c-0.019-0.087-0.033-0.18-0.049-0.274c-0.046-0.289-0.09-0.562-0.246-0.688l-0.042-0.037	C32.54,20.819,32.208,20.589,31.549,20.589z"/><path fill="#010101" d="M24.525,32.032c-1.195,0-2.132-0.773-2.517-2.084c-0.386-1.314,0.348-2.803,1.601-3.248	c0.449-0.159,0.9-0.176,1.294-0.177c0.818,0.006,1.246,0.415,1.586,0.856c0.487,0.633,0.67,1.913,0.507,2.614	c-0.078,0.525-0.358,1.005-0.856,1.464c-0.38,0.351-0.923,0.554-1.528,0.573C24.582,32.032,24.554,32.032,24.525,32.032z M24.854,27.523c-0.291,0-0.621,0.017-0.909,0.118c-0.744,0.266-1.21,1.23-0.977,2.025c0.151,0.514,0.553,1.365,1.557,1.365	c0.019,0,0.037,0,0.056-0.001c0.365-0.011,0.678-0.121,0.882-0.309c0.333-0.307,0.507-0.59,0.548-0.89l0.01-0.054	c0.119-0.474-0.057-1.443-0.323-1.79c-0.279-0.363-0.451-0.463-0.8-0.466C24.883,27.523,24.868,27.523,24.854,27.523z"/><path fill="#010101" d="M31.024,31.783c-1.229,0-2.004-0.602-2.366-1.835c-0.386-1.314,0.347-2.803,1.6-3.248	c0.449-0.159,0.908-0.176,1.295-0.177c0.819,0.006,1.246,0.415,1.585,0.856c0.397,0.515,0.75,1.354,0.557,2.174	c-0.124,0.792-0.869,1.516-1.02,1.654c-0.382,0.353-0.925,0.556-1.529,0.573C31.104,31.782,31.064,31.783,31.024,31.783z M31.503,27.523c-0.291,0-0.621,0.017-0.91,0.119c-0.743,0.264-1.209,1.229-0.976,2.024c0.243,0.827,0.655,1.135,1.498,1.114	c0.364-0.011,0.678-0.12,0.882-0.309c0.319-0.295,0.667-0.762,0.711-1.083l0.01-0.053c0.098-0.391-0.052-0.932-0.372-1.347	c-0.28-0.364-0.451-0.464-0.8-0.467C31.532,27.523,31.518,27.523,31.503,27.523z"/><path fill="#010101" d="M24.522,24.878c-0.103,0-0.206-0.006-0.309-0.019c-0.602-0.072-1.367-0.245-1.945-0.934	c-0.371-0.441-0.612-1.25-0.651-1.787c-0.05-0.694,0.314-1.426,0.95-1.908c0.603-0.457,1.372-0.665,2.125-0.571h0.001	c0.711,0,1.808,0.834,2.052,1.443c0.222,0.553,0.186,1.144,0.12,1.648c-0.054,0.406-0.086,0.603-0.293,1.021	C26.245,24.435,25.398,24.878,24.522,24.878z M24.345,20.638c-0.418,0-0.842,0.139-1.173,0.39c-0.363,0.276-0.582,0.685-0.557,1.039	c0.026,0.363,0.215,0.974,0.419,1.217c0.279,0.333,0.668,0.507,1.301,0.584c0.603,0.074,1.184-0.218,1.341-0.537	c0.138-0.279,0.151-0.354,0.197-0.709c0.049-0.376,0.08-0.807-0.056-1.146c-0.104-0.26-0.865-0.816-1.115-0.816l-0.104-0.004	C24.514,20.644,24.43,20.638,24.345,20.638z"/><path fill="#010101" d="M30.721,38.215c-0.102,0-0.203-0.006-0.305-0.019c-0.64-0.075-1.189-0.393-1.55-0.894	c-0.407-0.565-0.774-1.202-0.703-2.02c0.051-0.575,0.452-1.318,0.804-1.724c0.456-0.527,1.227-0.79,2.021-0.678	c0.75,0.103,1.443,0.502,1.907,1.099c0.503,0.502,0.688,1.867,0.431,2.471c-0.217,0.508-0.621,0.856-0.979,1.163l-0.081,0.07	C31.874,38.022,31.303,38.215,30.721,38.215z M30.633,33.857c-0.371,0-0.714,0.131-0.91,0.356c-0.265,0.305-0.538,0.867-0.563,1.157	c-0.041,0.468,0.159,0.848,0.519,1.348c0.25,0.347,0.604,0.455,0.855,0.484c0.461,0.059,0.88-0.104,1.079-0.275l0.082-0.071	c0.301-0.259,0.585-0.503,0.711-0.798c0.109-0.256-0.034-1.188-0.211-1.365l-0.071-0.076c-0.301-0.398-0.776-0.677-1.271-0.745	C30.778,33.862,30.705,33.857,30.633,33.857z"/><path fill="#010101" d="M17.63,32.116c-0.384,0-0.78-0.084-1.141-0.258c-0.547-0.263-1.216-0.672-1.541-1.51	c-0.202-0.519-0.18-1.374-0.041-1.902c0.178-0.673,0.757-1.248,1.513-1.5c0.719-0.238,1.515-0.188,2.197,0.143	c0.672,0.228,1.442,1.372,1.478,2.027c0.032,0.598-0.193,1.145-0.418,1.6c-0.191,0.391-0.287,0.556-0.604,0.873	C18.726,31.935,18.192,32.116,17.63,32.116z M17.337,27.8c-0.205,0-0.409,0.031-0.601,0.096c-0.433,0.144-0.771,0.46-0.862,0.806	c-0.102,0.39-0.1,1.015,0.006,1.285c0.157,0.405,0.47,0.695,1.043,0.972c0.551,0.264,1.19,0.174,1.442-0.076	c0.222-0.222,0.258-0.288,0.415-0.607c0.167-0.34,0.336-0.737,0.316-1.104c-0.016-0.278-0.557-1.052-0.793-1.133l-0.097-0.036	C17.941,27.868,17.639,27.8,17.337,27.8z"/><path fill="#010101" d="M20.107,38.549c-0.356,0-0.713-0.003-1.069-0.011l-0.341-0.005c-0.679-0.008-1.381-0.016-2.094-0.275	c-1.163-0.425-1.638-1.695-1.427-2.68c0.294-1.363,1.017-1.818,2.918-1.84c0.35-0.016,0.773-0.013,1.226-0.027	c0.855-0.026,1.821-0.059,2.647-0.006l0.606-0.012c0.732-0.019,1.488-0.035,2.2,0.047c1.31,0.154,1.973,0.743,2.086,1.854	c0.051,0.491,0.205,1.987-1.235,2.561c-0.348,0.137-0.716,0.17-0.985,0.193C23.143,38.481,21.622,38.549,20.107,38.549z M18.064,34.738c-1.684,0-1.773,0.419-1.91,1.051c-0.118,0.553,0.15,1.295,0.792,1.529c0.552,0.201,1.112,0.208,1.762,0.215	l0.352,0.005c1.832,0.042,3.678-0.023,5.491-0.187c0.28-0.024,0.51-0.05,0.706-0.127c0.441-0.176,0.715-0.503,0.609-1.529	c-0.049-0.47-0.168-0.839-1.208-0.962c-0.641-0.073-1.361-0.057-2.061-0.041l-0.653,0.013l-0.019-0.001	c-0.785-0.05-1.737-0.02-2.574,0.007c-0.464,0.015-0.885,0.014-1.259,0.027C18.083,34.738,18.074,34.738,18.064,34.738z"/></svg>